<?xml version="1.0" encoding="utf-8"?>
<!-- Generator: Adobe Illustrator 19.0.0, SVG Export Plug-In . SVG Version: 6.00 Build 0)  -->
<svg version="1.1" id="Warstwa_1" xmlns="http://www.w3.org/2000/svg" xmlns:xlink="http://www.w3.org/1999/xlink" width="77px" height="23px" x="0px" y="0px"
	 viewBox="0 0 77 23" style="enable-background:new 0 0 77 23;" xml:space="preserve">
<style type="text/css">
	.st0{fill:#2DAE9A;}
	.st1{fill:#E8F5F5;}
</style>
<path id="XMLID_5_" class="st0" d="M13.1,3.4V0H9.9v3.3H6.6V0H3.3v3.3H0v3.3h3.3v9.9H0v3.3h3.3V23h3.3v-3.3h3.3V23h3.3v-3.4
	c2.3-0.4,4.1-2.4,4.1-4.9c0-1.3-0.5-2.4-1.3-3.3c0.8-0.9,1.3-2,1.3-3.3C17.2,5.8,15.5,3.8,13.1,3.4z M6.6,6.6h5.7
	c0.9,0,1.6,0.7,1.6,1.6s-0.7,1.6-1.6,1.6H6.6V6.6z M12.3,16.4H6.6v-3.3h5.7c0.9,0,1.6,0.7,1.6,1.6S13.2,16.4,12.3,16.4z"/>
<g id="XMLID_4_">
	<path id="XMLID_7_" class="st1" d="M32.9,14.3c0,0.5-0.1,0.9-0.3,1.2s-0.4,0.6-0.8,0.9s-0.7,0.4-1.1,0.5s-0.9,0.2-1.4,0.2h-5.2V6.2
		h5.8c0.4,0,0.7,0.1,1,0.2c0.3,0.2,0.6,0.4,0.8,0.6C32,7.3,32.1,7.6,32.2,8c0.1,0.3,0.2,0.7,0.2,1c0,0.5-0.1,1-0.4,1.5
		c-0.3,0.5-0.7,0.8-1.2,1c0.6,0.2,1.1,0.5,1.5,1C32.7,13,32.9,13.6,32.9,14.3z M26.2,8v2.7H29c0.4,0,0.7-0.1,0.9-0.4s0.4-0.6,0.4-1
		c0-0.4-0.1-0.7-0.3-1C29.8,8.1,29.5,8,29.1,8H26.2z M30.7,13.9c0-0.2,0-0.4-0.1-0.6s-0.2-0.3-0.3-0.5c-0.1-0.1-0.2-0.2-0.4-0.3
		c-0.2-0.1-0.3-0.1-0.5-0.1h-3.2v2.9h3.1c0.2,0,0.4,0,0.5-0.1c0.2-0.1,0.3-0.2,0.4-0.3c0.1-0.1,0.2-0.3,0.3-0.5
		C30.7,14.3,30.7,14.1,30.7,13.9z"/>
	<path id="XMLID_11_" class="st1" d="M34.3,7.9v-2h2.1v2H34.3z M34.3,17.1v-8h2.1v8H34.3z"/>
	<path id="XMLID_14_" class="st1" d="M43,16.7c-0.3,0.1-0.6,0.2-1,0.4c-0.4,0.1-0.8,0.2-1.3,0.2c-0.3,0-0.6,0-0.8-0.1
		c-0.3-0.1-0.5-0.2-0.7-0.3c-0.2-0.2-0.3-0.4-0.5-0.6c-0.1-0.3-0.2-0.6-0.2-0.9v-4.6h-1.1V9.1h1.1V6.5h2.1v2.6h1.7v1.6h-1.7v3.9
		c0,0.3,0.1,0.5,0.2,0.6c0.1,0.1,0.3,0.2,0.5,0.2s0.4,0,0.6-0.1c0.2-0.1,0.4-0.1,0.5-0.2L43,16.7z"/>
	<path id="XMLID_16_" class="st1" d="M43.5,11.6c0-0.7,0.1-1.3,0.4-2c0.2-0.6,0.6-1.2,1-1.7c0.5-0.5,1-0.9,1.7-1.2
		c0.7-0.3,1.4-0.5,2.3-0.5c1,0,1.9,0.2,2.6,0.7s1.3,1,1.6,1.7l-1.6,1.1c-0.1-0.3-0.3-0.6-0.5-0.8s-0.4-0.4-0.7-0.5
		c-0.2-0.1-0.5-0.2-0.7-0.3C49.3,8,49.1,8,48.8,8c-0.5,0-1,0.1-1.4,0.3c-0.4,0.2-0.7,0.5-1,0.8c-0.3,0.3-0.5,0.7-0.6,1.2
		c-0.1,0.4-0.2,0.9-0.2,1.3c0,0.5,0.1,0.9,0.2,1.4c0.2,0.4,0.4,0.8,0.7,1.2c0.3,0.3,0.6,0.6,1,0.8c0.4,0.2,0.8,0.3,1.3,0.3
		c0.2,0,0.5,0,0.8-0.1c0.3-0.1,0.5-0.2,0.8-0.3c0.2-0.1,0.5-0.3,0.7-0.5c0.2-0.2,0.4-0.5,0.5-0.8l1.7,1c-0.2,0.4-0.4,0.8-0.7,1.1
		c-0.3,0.3-0.7,0.6-1.1,0.8c-0.4,0.2-0.8,0.4-1.3,0.5c-0.5,0.1-0.9,0.2-1.3,0.2c-0.8,0-1.5-0.2-2.1-0.5s-1.2-0.8-1.7-1.3
		s-0.8-1.1-1.1-1.8S43.5,12.3,43.5,11.6z"/>
	<path id="XMLID_18_" class="st1" d="M58.2,17.2c-0.7,0-1.2-0.1-1.8-0.3c-0.5-0.2-1-0.5-1.3-0.9s-0.6-0.8-0.8-1.3
		c-0.2-0.5-0.3-1-0.3-1.6c0-0.6,0.1-1.1,0.3-1.6c0.2-0.5,0.5-0.9,0.8-1.3s0.8-0.7,1.3-0.9C57,9,57.5,8.9,58.2,8.9
		c0.7,0,1.2,0.1,1.8,0.3c0.5,0.2,1,0.5,1.3,0.9c0.4,0.4,0.6,0.8,0.8,1.3c0.2,0.5,0.3,1,0.3,1.6c0,0.6-0.1,1.1-0.3,1.6
		c-0.2,0.5-0.5,0.9-0.8,1.3c-0.4,0.4-0.8,0.7-1.3,0.9C59.4,17.1,58.8,17.2,58.2,17.2z M56.1,13.1c0,0.4,0.1,0.7,0.2,1
		s0.3,0.5,0.4,0.8c0.2,0.2,0.4,0.4,0.7,0.5s0.5,0.2,0.8,0.2s0.6-0.1,0.8-0.2c0.3-0.1,0.5-0.3,0.7-0.5c0.2-0.2,0.3-0.5,0.4-0.8
		c0.1-0.3,0.2-0.6,0.2-1c0-0.3-0.1-0.7-0.2-1c-0.1-0.3-0.3-0.6-0.4-0.8c-0.2-0.2-0.4-0.4-0.7-0.5c-0.3-0.1-0.5-0.2-0.8-0.2
		s-0.6,0.1-0.8,0.2s-0.5,0.3-0.7,0.5s-0.3,0.5-0.4,0.8C56.2,12.4,56.1,12.7,56.1,13.1z"/>
	<path id="XMLID_21_" class="st1" d="M63.8,7.9v-2h2v2H63.8z M63.8,17.1v-8h2v8H63.8z"/>
	<path id="XMLID_24_" class="st1" d="M75.1,17.1h-2v-4.5c0-0.6-0.1-1.1-0.3-1.4s-0.5-0.4-0.9-0.4c-0.2,0-0.4,0-0.6,0.1
		c-0.2,0.1-0.4,0.2-0.6,0.3c-0.2,0.1-0.4,0.3-0.5,0.5c-0.2,0.2-0.3,0.4-0.3,0.7v4.7h-2v-8h1.9v1.5c0.3-0.5,0.7-0.9,1.3-1.2
		s1.2-0.4,1.9-0.4c0.5,0,0.9,0.1,1.2,0.3c0.3,0.2,0.6,0.4,0.7,0.7c0.2,0.3,0.3,0.6,0.4,1s0.1,0.8,0.1,1.1V17.1z"/>
</g>
<g id="XMLID_6_">
</g>
<g id="XMLID_26_">
</g>
<g id="XMLID_27_">
</g>
<g id="XMLID_28_">
</g>
<g id="XMLID_29_">
</g>
<g id="XMLID_30_">
</g>
<g id="XMLID_31_">
</g>
<g id="XMLID_32_">
</g>
<g id="XMLID_33_">
</g>
<g id="XMLID_34_">
</g>
<g id="XMLID_35_">
</g>
<g id="XMLID_36_">
</g>
<g id="XMLID_37_">
</g>
<g id="XMLID_38_">
</g>
<g id="XMLID_39_">
</g>
</svg>
